<?xml version="1.0" encoding="utf-8"?>
<!-- Generator: Adobe Illustrator 21.1.0, SVG Export Plug-In . SVG Version: 6.00 Build 0)  -->
<svg version="1.1" id="Calque_1" xmlns="http://www.w3.org/2000/svg" xmlns:xlink="http://www.w3.org/1999/xlink" x="0px" y="0px"
	 viewBox="0 0 127.2 134.4" style="enable-background:new 0 0 127.2 134.4;" xml:space="preserve">
<style type="text/css">
	.st0{display:none;fill:#FFFFFF;}
	.st1{fill:#E7262F;}
</style>
<path class="st0" d="M107,104c-1-14.3-11.8-26.3-26.9-31.5c-3.8,5.6-8.4,9.3-13.5,10.4c2.5,4.9,4.2,12.4-1.9,16.9
	c-1.8,1.4-3.8,2.1-5.9,2.1c-0.7,0-1.5-0.1-2.2-0.3c-4.6-1.1-8.6-5.4-11.3-9.1c-0.6,0.2-1.2,0.3-1.8,0.3c-3.6,0-6.6-2.9-6.6-6.6
	c0-3.6,2.9-6.6,6.6-6.6s6.6,2.9,6.6,6.6c0,1.7-0.6,3.2-1.6,4.3c2.4,3.2,5.7,6.7,9,7.4c1.8,0.4,3.4,0,5-1.2c5.3-4,1.4-11.4,0-13.7
	c-5.8-0.4-11.2-4.3-15.4-10.7C32,77.7,21.2,89.7,20.2,104C10.3,93.4,4.2,79.2,4.2,63.6c0-32.7,26.6-59.3,59.3-59.3
	s59.3,26.6,59.3,59.3C122.9,79.2,116.9,93.4,107,104z"/>
<g>
	<path class="st1" d="M37.1,109.1c-0.5-0.6-1.1-1.1-1.7-1.4c-0.7-0.3-1.4-0.5-2.1-0.5c-0.6,0-1.3,0.1-1.9,0.4
		c-0.6,0.3-1.2,0.7-1.7,1.2c-0.5-0.5-1.1-0.9-1.7-1.2c-0.6-0.3-1.3-0.4-2-0.5c-0.7,0-1.4,0.2-2.1,0.5c-0.6,0.3-1.2,0.8-1.7,1.4
		c-0.5,0.6-0.9,1.3-1.1,2c-0.3,0.8-0.5,1.6-0.5,2.5v11.6c0,0.6,0.2,1.1,0.5,1.5s0.8,0.6,1.3,0.6c0.5,0,0.9-0.2,1.3-0.6
		s0.5-0.9,0.5-1.5v-11.3c0-0.6,0.2-1.1,0.5-1.5c0.4-0.4,0.8-0.6,1.3-0.6c0.5,0,0.9,0.2,1.3,0.6c0.4,0.4,0.5,0.9,0.5,1.5v2.6
		c0,0.6,0.2,1.1,0.5,1.5c0.3,0.4,0.8,0.6,1.3,0.6c0.5,0,0.9-0.2,1.3-0.6c0.3-0.4,0.5-0.9,0.5-1.5v-2.6c0-0.6,0.2-1.1,0.5-1.5
		c0.3-0.4,0.8-0.6,1.2-0.6c0.5,0,0.9,0.2,1.3,0.6c0.3,0.4,0.5,0.9,0.5,1.5v11.3c0,0.6,0.2,1.1,0.5,1.5c0.4,0.4,0.8,0.6,1.3,0.6
		c0.5,0,0.9-0.2,1.3-0.6c0.4-0.4,0.5-0.9,0.5-1.5v-11.6c0-0.9-0.2-1.7-0.5-2.4C38,110.4,37.6,109.7,37.1,109.1z"/>
	<path class="st1" d="M52.9,107c-0.6,0-1.1,0.2-1.5,0.6s-0.6,0.9-0.6,1.5v2.8c0,0.9-0.3,1.6-0.9,2.2c-0.6,0.6-1.3,0.9-2.2,0.9
		c-0.9,0-1.6-0.3-2.2-0.9s-0.9-1.3-0.9-2.2v-2.8c0-0.6-0.2-1.1-0.6-1.5s-0.9-0.6-1.5-0.6c-0.6,0-1.1,0.2-1.5,0.6s-0.6,0.9-0.6,1.5
		v2.8c0,0.8,0.1,1.6,0.4,2.3c0.3,0.7,0.6,1.4,1.1,2c0.5,0.6,1,1.1,1.6,1.6s1.3,0.8,2,1v6.2c0,0.6,0.2,1.1,0.6,1.5s0.9,0.6,1.5,0.6
		c0.6,0,1.1-0.2,1.5-0.6s0.6-0.9,0.6-1.5v-6.1c0.8-0.2,1.5-0.5,2.1-1c0.6-0.4,1.2-1,1.7-1.6c0.5-0.6,0.8-1.3,1.1-2
		c0.3-0.7,0.4-1.5,0.4-2.3v0v-2.8c0-0.6-0.2-1.1-0.6-1.5S53.5,107,52.9,107z"/>
	<path class="st1" d="M69.3,106.7h-4.6c-0.5,0-1,0.2-1.3,0.7c-0.4,0.5-0.5,1-0.5,1.5v16.2c0,0.6,0.2,1.1,0.6,1.6
		c0.4,0.4,0.8,0.6,1.3,0.6h4.6c2.4,0,4.5-1,6.2-3.1c1.7-2.1,2.5-4.5,2.5-7.2c0-2.9-0.9-5.4-2.6-7.3
		C73.6,107.7,71.6,106.7,69.3,106.7z M72.9,121.3c-1,1.1-2.2,1.7-3.6,1.6h-2.8v-11.8h2.8c1.4,0,2.6,0.5,3.6,1.7
		c1,1.1,1.5,2.5,1.5,4.2C74.4,118.7,73.9,120.1,72.9,121.3z"/>
	<path class="st1" d="M90.6,113.9c-0.6-0.7-1.3-1.3-2.1-1.7c-0.8-0.4-1.7-0.6-2.5-0.6c-0.9,0-1.8,0.3-2.6,0.7
		c-0.8,0.4-1.5,1-2.1,1.7c-0.6,0.7-1.1,1.5-1.4,2.5s-0.5,1.9-0.5,3c0,1.1,0.2,2.1,0.5,3.1c0.3,0.9,0.8,1.8,1.4,2.5
		c0.6,0.7,1.3,1.2,2.1,1.6c0.8,0.4,1.7,0.6,2.6,0.6c0.9,0,1.8-0.2,2.6-0.6c0.8-0.4,1.5-1,2.1-1.7s1.1-1.5,1.4-2.5
		c0.3-0.9,0.5-1.9,0.5-3c0-1.1-0.2-2.1-0.5-3.1C91.7,115.5,91.2,114.6,90.6,113.9z M88.8,120.9c-0.2,0.4-0.4,0.8-0.7,1.2
		c-0.3,0.3-0.6,0.6-1,0.8c-0.4,0.2-0.8,0.3-1.2,0.3c-0.4,0-0.8-0.1-1.2-0.3c-0.4-0.2-0.7-0.5-1-0.8c-0.3-0.3-0.5-0.7-0.7-1.2
		c-0.2-0.4-0.2-0.9-0.2-1.4c0-0.5,0.1-1,0.2-1.4c0.2-0.4,0.4-0.8,0.7-1.1c0.3-0.3,0.6-0.6,1-0.8c0.4-0.2,0.8-0.3,1.2-0.3
		c0.9,0,1.6,0.4,2.2,1.1s0.9,1.5,0.9,2.5C89.1,120,89,120.4,88.8,120.9z"/>
	<path class="st1" d="M98.4,117c0.3-0.3,0.6-0.6,1-0.8c0.4-0.2,0.8-0.3,1.2-0.3c0.8,0,1.5,0.3,2,0.9c0.3,0.4,0.7,0.6,1.3,0.6
		c0.5,0,0.9-0.2,1.3-0.6c0.3-0.4,0.5-0.8,0.5-1.4s-0.1-1-0.4-1.5c-1.3-1.5-2.8-2.3-4.7-2.3c-0.9,0-1.7,0.2-2.5,0.6
		c-0.8,0.4-1.5,1-2.1,1.7s-1.1,1.5-1.5,2.5c-0.4,0.9-0.5,1.9-0.5,3c0,1.1,0.2,2.1,0.5,3c0.4,0.9,0.8,1.8,1.4,2.5
		c0.6,0.7,1.3,1.3,2.1,1.7c0.8,0.4,1.7,0.6,2.6,0.6c0.9,0,1.8-0.2,2.5-0.6c0.8-0.4,1.5-1,2.1-1.7c0.1-0.2,0.3-0.4,0.3-0.7
		c0.1-0.2,0.1-0.5,0.1-0.8c0-0.3-0.1-0.5-0.2-0.7c-0.1-0.2-0.2-0.4-0.4-0.6c-0.3-0.4-0.8-0.6-1.3-0.6c-0.5,0-0.9,0.2-1.3,0.6
		c-0.5,0.6-1.2,0.9-2,0.9c-0.4,0-0.8-0.1-1.2-0.3c-0.4-0.2-0.7-0.5-1-0.8c-0.3-0.3-0.5-0.7-0.7-1.2c-0.2-0.4-0.2-0.9-0.2-1.4
		c0-0.5,0.1-0.9,0.2-1.4C97.9,117.7,98.1,117.3,98.4,117z"/>
	<path class="st1" d="M27,73.2c1,0.3,2.1,0.5,3.1,0.5c2.8,0,5.2-1.1,6.5-2.6c1-1.1,1.2-2.3,0.7-3.4C36.1,65,33,62,30.5,62
		c-2.3-0.1-3.2,1.1-3.7,1.8c-0.1,0.1-0.2,0.2-0.2,0.3c-0.6-0.3-2.2-1.4-4.5-3.5c0,0,0-0.1-0.1-0.1c-2.3-2.4-3.5-4-3.7-4.6
		c0.1-0.1,0.2-0.2,0.3-0.2c0.8-0.6,1.9-1.4,1.8-3.8c-0.1-2.5-3.1-5.6-5.8-6.8c-1.1-0.5-2.3-0.2-3.4,0.8c-2,1.8-3.3,5.6-2,9.6
		c1.2,3.9,3.4,7.4,6.4,10.4c0,0,0,0.1,0.1,0.1C18.8,69.5,22.6,71.9,27,73.2z"/>
	<path class="st1" d="M24.4,46c-0.5,0-0.8,0.3-0.9,0.8c0,0.5,0.3,0.8,0.8,0.9c2.3,0.2,4.4,1.2,5.9,2.9c1.6,1.7,2.5,3.9,2.5,6.2
		c0,0.2,0.1,0.4,0.2,0.6c0.2,0.2,0.4,0.3,0.6,0.3c0.4,0,0.8-0.4,0.8-0.8c0-2.7-1.1-5.3-2.9-7.3C29.6,47.4,27.1,46.2,24.4,46z"/>
	<path class="st1" d="M23.7,52.5c1.1,0.1,2.2,0.6,3,1.4c0.8,0.8,1.2,1.9,1.2,3.1c0,0.2,0.1,0.4,0.2,0.6c0.2,0.2,0.4,0.3,0.6,0.3
		c0.4,0,0.8-0.4,0.8-0.8c0-1.6-0.6-3.1-1.7-4.2s-2.5-1.8-4.1-1.9c-0.5,0-0.8,0.3-0.9,0.8C22.9,52.1,23.3,52.4,23.7,52.5z"/>
	<path class="st1" d="M24.1,42.5c3.7,0.3,7.1,1.9,9.7,4.6c2.6,2.7,4,6.3,4.1,10.1c0,0.2,0.1,0.4,0.2,0.6c0.2,0.2,0.4,0.3,0.6,0.3
		c0.4,0,0.8-0.4,0.8-0.8c0-4.2-1.6-8.1-4.5-11.2c-2.8-3-6.7-4.8-10.8-5.2c-0.5,0-0.8,0.3-0.9,0.8C23.3,42.1,23.7,42.5,24.1,42.5z"/>
	<path class="st1" d="M56.2,63.4V66v4.3c-1.9,0.3-3.7,0.6-5.5,1.1c3.7,5.2,8.1,8.2,12.8,8.2s9.1-3.1,12.8-8.2
		c-1.8-0.5-3.6-0.8-5.5-1.1V66v-2.6c10.1-3.1,17.5-12.5,17.5-23.7C88.2,26.1,77.1,15,63.4,15c-13.7,0-24.7,11.1-24.7,24.7
		C38.7,50.9,46,60.3,56.2,63.4z"/>
	<path class="st1" d="M127.2,63.6C127.2,28.5,98.7,0,63.6,0S0,28.5,0,63.6C0,79.4,5.8,93.9,15.4,105c-3.1,3-5,7.3-5,11.9
		c0,9.2,7.5,16.7,16.7,16.7h72.3c9.2,0,16.7-7.5,16.7-16.7c0-4.5-1.8-8.5-4.6-11.5C121.2,94.3,127.2,79.6,127.2,63.6z M63.6,4.2
		c32.7,0,59.3,26.6,59.3,59.3c0,15-5.6,28.7-14.9,39.2c-0.4-0.3-0.9-0.5-1.3-0.7c0,0,0,0,0,0C105,88.6,94.5,77.4,80.1,72.5
		c-3.8,5.6-8.4,9.3-13.5,10.4c2.5,4.9,4.2,12.4-1.9,16.9c-0.2,0.2-0.5,0.3-0.7,0.5H53.3c-3.2-1.8-6-5-8.1-7.7
		c-0.6,0.2-1.2,0.3-1.8,0.3c-3.6,0-6.6-2.9-6.6-6.6c0-3.6,2.9-6.6,6.6-6.6s6.6,2.9,6.6,6.6c0,1.7-0.6,3.2-1.6,4.3
		c2.4,3.2,5.7,6.7,9,7.4c1.8,0.4,3.4,0,5-1.2c5.3-4,1.4-11.4,0-13.7c-5.8-0.4-11.2-4.3-15.4-10.7c-14.3,4.9-24.7,15.9-26.6,29.1
		c-0.6,0.2-1.1,0.5-1.6,0.8C9.8,92,4.2,78.5,4.2,63.6C4.2,30.9,30.9,4.2,63.6,4.2z M99.3,130.7H27c-7.6,0-13.7-6.1-13.7-13.7
		c0-7.6,6.1-13.7,13.7-13.7h72.3c7.6,0,13.7,6.1,13.7,13.7C113,124.5,106.9,130.7,99.3,130.7z"/>
</g>
</svg>
